<svg id="Layer_1" data-name="Layer 1" xmlns="http://www.w3.org/2000/svg" xmlns:xlink="http://www.w3.org/1999/xlink" viewBox="0 0 428.21 214.02"><defs><style>.cls-1{fill:#fff;}.cls-2{fill:url(#linear-gradient);}.cls-3{fill:#231f20;}</style><linearGradient id="linear-gradient" x1="159.37" y1="76.15" x2="246.26" y2="76.15" gradientUnits="userSpaceOnUse"><stop offset="0" stop-color="#d42426"/><stop offset="0.2" stop-color="#d8364f"/><stop offset="0.5" stop-color="#dd508a"/><stop offset="0.6" stop-color="#de5586"/><stop offset="0.71" stop-color="#e0637a"/><stop offset="0.84" stop-color="#e37b65"/><stop offset="0.96" stop-color="#e89b49"/><stop offset="1" stop-color="#eaa640"/></linearGradient></defs><title>macgooey-header</title><rect class="cls-1" width="428.21" height="214.02"/><path class="cls-2" d="M234.19,33.38a12.08,12.08,0,0,0-12.06,12.06V91.28a8.31,8.31,0,0,0,16.63,0V54.12a2.53,2.53,0,1,0-5.07,0V91.28a3.25,3.25,0,0,1-6.49,0V45.45a7,7,0,0,1,14,0v57.77a10.63,10.63,0,0,1-21.25,0V80.85a2.53,2.53,0,0,0-4.33-1.79l-5.12,5.12a10.57,10.57,0,0,1-7.57,3.09h-.27a10.53,10.53,0,0,1-7.51-3.09L190,79.06a2.53,2.53,0,0,0-4.33,1.79v22.37a10.63,10.63,0,1,1-21.25,0V49.07c0-.33,0-.67.05-1v-.09a10.54,10.54,0,0,1,9.42-9.43H174c.34,0,.67,0,1-.05h.22c.36,0,.63,0,.86,0l.21,0,.4.06.44.07.13,0,.29.07c.21,0,.41.1.6.16l.18.06c.27.09.53.19.79.29a10.42,10.42,0,0,1,3.42,2.27L201,60a2.53,2.53,0,0,0,3.58,0l14-14A2.53,2.53,0,0,0,215,42.46L202.81,54.63,186.14,38a15.46,15.46,0,0,0-5.07-3.37c-.42-.17-.8-.31-1.16-.43l-.23-.08c-.31-.1-.62-.17-.94-.25l-.19,0-.4-.09c-.24,0-.49-.08-.74-.12l-.29,0-.51-.07c-.38,0-.77-.06-1.23-.07H175c-.5,0-1,0-1.54.08h-.12a15.6,15.6,0,0,0-13.9,13.89v.12c-.05.53-.08,1-.08,1.55v54.18a15.69,15.69,0,0,0,31.39,0V87l.8.8a16.14,16.14,0,0,0,22.51,0l.8-.8v16.25a15.69,15.69,0,0,0,31.39,0V45.45A12.08,12.08,0,0,0,234.19,33.38Z" transform="translate(11.29 11.86)"/><path class="cls-3" d="M149.64,148l.08.14.08.17.08-.17L150,148l8.87-15.42a.23.23,0,0,1,.2-.12h.12v20.16h-.29V133.24a.76.76,0,0,1,0-.14L150,148.48q-.1.14-.2.14h-.09c-.07,0-.13,0-.2-.14l-9.12-15.37a.73.73,0,0,1,0,.14v19.41h-.29V132.49h.12a.23.23,0,0,1,.2.12Z" transform="translate(11.29 11.86)"/><path class="cls-3" d="M173.9,152.65c-.13,0-.2-.08-.2-.23l-.09-2.29a15.6,15.6,0,0,1-1.21,1.14,7,7,0,0,1-1.28.86,6.61,6.61,0,0,1-1.45.55,7.14,7.14,0,0,1-1.73.19,4.38,4.38,0,0,1-1.27-.19,3.35,3.35,0,0,1-1.16-.62,3.18,3.18,0,0,1-.84-1.09,3.73,3.73,0,0,1-.32-1.63,2.81,2.81,0,0,1,.55-1.71,4.29,4.29,0,0,1,1.7-1.29,11.85,11.85,0,0,1,2.89-.84,27.87,27.87,0,0,1,4.13-.37v-1.81a7.42,7.42,0,0,0-.24-2,4.2,4.2,0,0,0-.72-1.48,3.12,3.12,0,0,0-1.2-.93,4,4,0,0,0-1.67-.32,5.35,5.35,0,0,0-1.35.16,5.93,5.93,0,0,0-1.08.39,4.71,4.71,0,0,0-.83.5q-.35.27-.61.5l-.42.39c-.11.11-.18.16-.23.16a.24.24,0,0,1-.14-.09l-.06-.06a8.2,8.2,0,0,1,2.15-1.67,5.52,5.52,0,0,1,2.58-.58,4.6,4.6,0,0,1,1.86.35,3.39,3.39,0,0,1,1.3,1,4.2,4.2,0,0,1,.76,1.58,8.22,8.22,0,0,1,.25,2.1v9.33Zm-6-.06a6.4,6.4,0,0,0,3.28-.85,7.83,7.83,0,0,0,1.26-.9q.58-.51,1.13-1.07v-4.35a18.8,18.8,0,0,0-6.73,1.13q-2.2,1-2.2,2.79a3.48,3.48,0,0,0,.28,1.46,3,3,0,0,0,.73,1,3,3,0,0,0,1,.59A3.78,3.78,0,0,0,167.93,152.6Z" transform="translate(11.29 11.86)"/><path class="cls-3" d="M187.63,139.87a.17.17,0,0,1-.12.06q-.09,0-.32-.21a3.84,3.84,0,0,0-.69-.45,6.32,6.32,0,0,0-1.14-.45,5.7,5.7,0,0,0-1.65-.21,5.87,5.87,0,0,0-2.45.49,5,5,0,0,0-1.83,1.4,6.31,6.31,0,0,0-1.15,2.2,9.93,9.93,0,0,0-.4,2.91,10.08,10.08,0,0,0,.4,3,6.23,6.23,0,0,0,1.13,2.17,4.82,4.82,0,0,0,1.76,1.35,5.56,5.56,0,0,0,2.3.46,6.06,6.06,0,0,0,1.9-.26,6,6,0,0,0,1.28-.58,4.44,4.44,0,0,0,.76-.58q.26-.26.35-.26a.17.17,0,0,1,.12.06l.06.06a2.94,2.94,0,0,1-.63.64,5.11,5.11,0,0,1-1,.59,6.92,6.92,0,0,1-1.3.44,6.59,6.59,0,0,1-1.54.17,6,6,0,0,1-2.46-.49,5.09,5.09,0,0,1-1.86-1.42,6.57,6.57,0,0,1-1.19-2.27,10.24,10.24,0,0,1-.42-3.05,10,10,0,0,1,.42-3,6.59,6.59,0,0,1,1.21-2.3,5.44,5.44,0,0,1,1.94-1.48,6.16,6.16,0,0,1,2.6-.53,6,6,0,0,1,2.28.41,5.88,5.88,0,0,1,1.72,1.06Z" transform="translate(11.29 11.86)"/><path class="cls-3" d="M200.77,152.6a16.63,16.63,0,0,0,2.24-.14,11.72,11.72,0,0,0,1.87-.4,10.94,10.94,0,0,0,1.63-.65,17.38,17.38,0,0,0,1.55-.87v-6.26h-4.52q-.17,0-.17-.14V144h5v6.68a15.34,15.34,0,0,1-1.55.91,11,11,0,0,1-1.71.7,12.85,12.85,0,0,1-2,.45,16.13,16.13,0,0,1-2.35.16,10.49,10.49,0,0,1-3.95-.71,8.42,8.42,0,0,1-3-2.05,9.27,9.27,0,0,1-2-3.25,13.66,13.66,0,0,1,0-8.58,9,9,0,0,1,2-3.25A8.73,8.73,0,0,1,197,133a11.22,11.22,0,0,1,4.13-.72,14.35,14.35,0,0,1,2.06.14,9,9,0,0,1,1.74.42,8.21,8.21,0,0,1,1.5.72,9.6,9.6,0,0,1,1.38,1l0,.07a.16.16,0,0,1-.13.07q-.12,0-.49-.34a6,6,0,0,0-1.13-.75,9.64,9.64,0,0,0-2-.75,12.25,12.25,0,0,0-6.9.35,8.31,8.31,0,0,0-3,2,8.81,8.81,0,0,0-1.93,3.15,13.47,13.47,0,0,0,0,8.41,8.94,8.94,0,0,0,1.89,3.15,8.15,8.15,0,0,0,2.93,2A10.07,10.07,0,0,0,200.77,152.6Z" transform="translate(11.29 11.86)"/><path class="cls-3" d="M218.45,138.31a6.28,6.28,0,0,1,2.64.53,5.36,5.36,0,0,1,1.94,1.48,6.47,6.47,0,0,1,1.19,2.3,10.4,10.4,0,0,1,.4,3,10.25,10.25,0,0,1-.4,3,6.48,6.48,0,0,1-1.19,2.28,5.22,5.22,0,0,1-1.94,1.46,7.07,7.07,0,0,1-5.28,0,5.24,5.24,0,0,1-1.93-1.46,6.48,6.48,0,0,1-1.19-2.28,10.22,10.22,0,0,1-.4-3,10.37,10.37,0,0,1,.4-3,6.47,6.47,0,0,1,1.19-2.3,5.38,5.38,0,0,1,1.93-1.48A6.27,6.27,0,0,1,218.45,138.31Zm0,14.23A6,6,0,0,0,221,152a5,5,0,0,0,1.82-1.41,6.18,6.18,0,0,0,1.09-2.19,11.17,11.17,0,0,0,0-5.68,6.34,6.34,0,0,0-1.09-2.21,5,5,0,0,0-1.82-1.43,6.56,6.56,0,0,0-5.08,0,5,5,0,0,0-1.81,1.43,6.32,6.32,0,0,0-1.09,2.21,11.17,11.17,0,0,0,0,5.68,6.16,6.16,0,0,0,1.09,2.19,5,5,0,0,0,1.81,1.41A6,6,0,0,0,218.45,152.54Z" transform="translate(11.29 11.86)"/><path class="cls-3" d="M233.66,138.31a6.28,6.28,0,0,1,2.64.53,5.36,5.36,0,0,1,1.94,1.48,6.47,6.47,0,0,1,1.19,2.3,10.4,10.4,0,0,1,.4,3,10.25,10.25,0,0,1-.4,3,6.48,6.48,0,0,1-1.19,2.28,5.22,5.22,0,0,1-1.94,1.46,7.07,7.07,0,0,1-5.28,0,5.24,5.24,0,0,1-1.93-1.46,6.48,6.48,0,0,1-1.19-2.28,10.22,10.22,0,0,1-.4-3,10.37,10.37,0,0,1,.4-3,6.47,6.47,0,0,1,1.19-2.3,5.38,5.38,0,0,1,1.93-1.48A6.27,6.27,0,0,1,233.66,138.31Zm0,14.23a6,6,0,0,0,2.54-.5,5,5,0,0,0,1.82-1.41,6.18,6.18,0,0,0,1.09-2.19,11.17,11.17,0,0,0,0-5.68,6.34,6.34,0,0,0-1.09-2.21,5,5,0,0,0-1.82-1.43,6.56,6.56,0,0,0-5.08,0,5,5,0,0,0-1.81,1.43,6.32,6.32,0,0,0-1.09,2.21,11.17,11.17,0,0,0,0,5.68,6.16,6.16,0,0,0,1.09,2.19,5,5,0,0,0,1.81,1.41A6,6,0,0,0,233.66,152.54Z" transform="translate(11.29 11.86)"/><path class="cls-3" d="M248.87,138.31a5.41,5.41,0,0,1,2.07.4,4.66,4.66,0,0,1,1.68,1.17,5.56,5.56,0,0,1,1.12,1.91,7.73,7.73,0,0,1,.4,2.6.13.13,0,0,1-.05.11.21.21,0,0,1-.12,0H243.08a2.7,2.7,0,0,0,0,.39v.39a10.49,10.49,0,0,0,.42,3.1,6.41,6.41,0,0,0,1.19,2.26,5,5,0,0,0,1.86,1.39,6,6,0,0,0,2.41.48,7.14,7.14,0,0,0,2.05-.26,7.33,7.33,0,0,0,1.43-.58,5.09,5.09,0,0,0,.86-.58q.3-.26.38-.26a.17.17,0,0,1,.12.06l.06.06a3.3,3.3,0,0,1-.73.63,6.6,6.6,0,0,1-1.14.6,8.51,8.51,0,0,1-1.43.45,7.34,7.34,0,0,1-1.6.17,6.36,6.36,0,0,1-2.61-.51,5.28,5.28,0,0,1-2-1.48,6.8,6.8,0,0,1-1.23-2.36,10.71,10.71,0,0,1-.43-3.17,9.19,9.19,0,0,1,.42-2.84,6.35,6.35,0,0,1,1.21-2.21,5.45,5.45,0,0,1,1.94-1.43A6.31,6.31,0,0,1,248.87,138.31Zm0,.29a6,6,0,0,0-2.28.41,5.15,5.15,0,0,0-1.75,1.15,5.57,5.57,0,0,0-1.17,1.79,8.11,8.11,0,0,0-.57,2.32h10.73a7.27,7.27,0,0,0-.37-2.43,5,5,0,0,0-1-1.78,4.46,4.46,0,0,0-1.58-1.09A5.09,5.09,0,0,0,248.87,138.6Z" transform="translate(11.29 11.86)"/><path class="cls-3" d="M260.19,157.52a.73.73,0,0,1-.13.22.27.27,0,0,1-.22.1h-.2l2.42-5.43L256,138.54h.2a.27.27,0,0,1,.19.06.38.38,0,0,1,.1.14l5.62,12.82.11.26a1.71,1.71,0,0,1,.08.27,1.53,1.53,0,0,1,.08-.27l.11-.26,5.62-12.82a.3.3,0,0,1,.26-.2h.2Z" transform="translate(11.29 11.86)"/></svg>